<?xml version="1.0" encoding="UTF-8" standalone="no"?>
<!DOCTYPE svg PUBLIC "-//W3C//DTD SVG 1.1//EN"
 "http://www.w3.org/Graphics/SVG/1.1/DTD/svg11.dtd">
<!-- Generated by graphviz version 13.0.0 (20250608.1624)
 -->
<!-- Title: Flowchart Pages: 1 -->
<svg width="315pt" height="176pt"
 viewBox="0.00 0.00 315.00 176.00" xmlns="http://www.w3.org/2000/svg" xmlns:xlink="http://www.w3.org/1999/xlink">
<g id="graph0" class="graph" transform="scale(1 1) rotate(0) translate(4 171.9)">
<title>Flowchart</title>
<polygon fill="white" stroke="none" points="-4,4 -4,-171.9 310.93,-171.9 310.93,4 -4,4"/>
<!-- Quantify -->
<g id="node1" class="node">
<title>Quantify</title>
<polygon fill="none" stroke="black" points="151.05,-54 47.25,-54 47.25,0 151.05,0 151.05,-54"/>
<text xml:space="preserve" text-anchor="middle" x="99.15" y="-30.2" font-family="Times,serif" font-size="14.00">Quantify read</text>
<text xml:space="preserve" text-anchor="middle" x="99.15" y="-13.7" font-family="Times,serif" font-size="14.00">counts</text>
</g>
<!-- Downstream -->
<g id="node2" class="node">
<title>Downstream</title>
<polygon fill="none" stroke="black" points="306.93,-54 169.38,-54 169.38,0 306.93,0 306.93,-54"/>
<text xml:space="preserve" text-anchor="middle" x="238.15" y="-30.2" font-family="Times,serif" font-size="14.00">Perform dowstream</text>
<text xml:space="preserve" text-anchor="middle" x="238.15" y="-13.7" font-family="Times,serif" font-size="14.00">analyses</text>
</g>
<!-- Quantify&#45;&gt;Downstream -->
<g id="edge4" class="edge">
<title>Quantify&#45;&gt;Downstream</title>
<path fill="none" stroke="black" d="M151.55,-27C153.65,-27 155.76,-27 157.87,-27"/>
<polygon fill="black" stroke="black" points="157.62,-30.5 167.62,-27 157.62,-23.5 157.62,-30.5"/>
</g>
<!-- Here -->
<g id="node3" class="node">
<title>Here</title>
<polygon fill="none" stroke="black" points="266.54,-123.37 244.85,-123.37 238.15,-144 231.45,-123.37 209.76,-123.37 227.31,-110.63 220.6,-90 238.15,-102.75 255.7,-90 248.99,-110.63 266.54,-123.37"/>
<text xml:space="preserve" text-anchor="middle" x="174.89" y="-147.2" font-family="Times,serif" font-size="14.00">You are here</text>
</g>
<!-- Here&#45;&gt;Downstream -->
<!-- Backward -->
<g id="node4" class="node">
<title>Backward</title>
<text xml:space="preserve" text-anchor="middle" x="60.15" y="-111.95" font-family="Times,serif" font-size="14.00">Work backward!</text>
</g>
<!-- Backward&#45;&gt;Here -->
<g id="edge3" class="edge">
<title>Backward&#45;&gt;Here</title>
<path fill="none" stroke="black" d="M107.52,-149.48C117.25,-154.65 127.73,-159.21 138.15,-162 161.33,-168.21 169.93,-171.06 192.15,-162 209.74,-154.83 224.25,-137.34 232.02,-126.4"/>
<polygon fill="black" stroke="black" points="109.41,-146.54 98.98,-144.67 105.97,-152.63 109.41,-146.54"/>
</g>
<!-- Blank -->
<g id="node5" class="node">
<title>Blank</title>
</g>
<!-- Backward&#45;&gt;Blank -->
<!-- Blank&#45;&gt;Here -->
</g>
</svg>
